<svg width="158" height="85" viewBox="0 0 158 85" fill="blue" xmlns="http://www.w3.org/2000/svg">
<g clip-path="url(#clip0_42_3343)">
<path d="M154.192 49.9951C156.6 53.5681 158 57.867 158 62.5008C158 63.3383 157.944 64.1757 157.86 65.0131C156.628 76.2627 147.052 85.0279 135.433 85.0279H75.2341V65.0131H130.393C134.537 65.0131 137.925 61.6634 137.925 57.5041C137.925 53.3448 134.565 49.9951 130.393 49.9951H80.246L92.7897 32.4926H131.653C135.125 32.4926 137.925 29.7011 137.925 26.2397C137.925 22.7783 135.125 19.9869 131.653 19.9869H80.246L57.6785 49.9951V85H37.603V49.9951L0 0H22.5674L47.6548 33.33L72.7142 0H135.405C147.024 0 156.6 8.73727 157.832 20.0148C157.916 20.8243 157.972 21.6617 157.972 22.5271C157.972 26.1281 157.132 29.5057 155.62 32.5205C155.2 33.3859 154.696 34.2233 154.164 35.0328C152.036 38.1872 149.152 40.7832 145.736 42.5419C149.152 44.3005 152.036 46.8965 154.164 50.0509L154.192 49.9951Z" fill="blue"/>
</g>
<defs>
<clipPath id="clip0_42_3343">
<rect width="158" height="85" fill="blue"/>
</clipPath>
</defs>
</svg>
